<?xml version="1.0" standalone="no"?>
<!DOCTYPE svg PUBLIC "-//W3C//DTD SVG 20010904//EN"
 "http://www.w3.org/TR/2001/REC-SVG-20010904/DTD/svg10.dtd">
<svg version="1.0" xmlns="http://www.w3.org/2000/svg"
 width="378.000000pt" height="214.000000pt" viewBox="0 0 378.000000 214.000000"
 preserveAspectRatio="xMidYMid meet">

<g transform="translate(0.000000,214.000000) scale(0.100000,-0.100000)"
fill="#000000" stroke="none">
<path d="M1256 1582 c-6 -9 -9 -354 -4 -552 3 -154 3 -155 27 -158 31 -5 39 5
46 54 6 32 3 44 -11 59 -13 13 -15 20 -6 23 8 2 12 29 12 83 0 51 -4 78 -10
74 -5 -3 -10 -1 -10 4 0 6 5 11 10 11 6 0 10 50 10 129 0 72 4 132 9 135 5 3
67 -55 138 -129 72 -74 136 -135 144 -135 8 0 73 58 144 130 71 71 133 126
137 122 5 -5 8 -113 8 -240 1 -176 3 -232 13 -232 9 0 8 -3 -1 -9 -8 -5 -12
-22 -10 -42 2 -27 8 -35 27 -37 13 -2 28 2 32 10 10 15 12 658 3 682 -15 40
-51 15 -198 -134 -82 -82 -152 -150 -156 -150 -4 0 -74 70 -155 155 -108 113
-154 155 -171 155 -12 0 -25 -3 -28 -8z"/>
<path d="M2112 1578 c-16 -16 -15 -75 1 -81 10 -4 10 -6 0 -6 -10 -1 -13 -28
-13 -100 0 -70 4 -101 13 -104 10 -4 10 -6 0 -6 -10 -1 -13 -42 -13 -171 0
-178 8 -219 45 -234 9 -3 155 -6 324 -6 381 0 349 -17 351 185 1 77 1 219 0
315 -1 242 36 220 -374 220 -237 0 -325 -3 -334 -12z m636 -345 c3 -308 6
-289 -50 -284 -10 1 -27 -3 -38 -9 -16 -9 -25 -8 -36 0 -7 7 -22 9 -31 5 -23
-9 -144 -9 -172 0 -12 4 -28 2 -36 -5 -8 -6 -18 -9 -22 -7 -5 3 -42 7 -83 8
-41 1 -81 4 -87 7 -10 3 -13 70 -13 288 l0 284 283 -2 282 -3 3 -282z"/>
<path d="M2973 1566 c-28 -24 -28 -26 -31 -158 -3 -111 -1 -138 13 -165 10
-17 25 -35 34 -40 9 -4 147 -10 306 -13 l290 -5 3 -114 c2 -85 -1 -117 -10
-123 -7 -4 -136 -8 -286 -7 -190 1 -277 -3 -286 -10 -11 -9 -15 -9 -18 0 -5
16 -37 5 -44 -16 -4 -8 -1 -22 6 -30 18 -22 645 -22 676 0 38 26 46 65 42 199
-3 122 -4 126 -31 153 l-27 28 -293 5 -292 5 0 120 0 120 311 3 c333 2 344 4
329 52 -6 20 -13 20 -335 20 l-329 0 -28 -24z"/>
<path d="M531 1536 c-7 -8 -10 -24 -6 -36 6 -20 13 -20 279 -20 237 0 275 2
287 16 9 11 10 20 2 32 -9 15 -41 17 -280 20 -228 2 -272 0 -282 -12z"/>
<path d="M288 1259 c-10 -5 -18 -21 -18 -34 l0 -25 404 0 c359 0 405 2 417 16
11 14 10 19 -10 35 -22 18 -45 19 -400 19 -237 0 -382 -4 -393 -11z"/>
<path d="M20 965 c-6 -8 -9 -23 -5 -35 6 -20 11 -20 534 -20 569 0 568 0 541
49 -11 21 -16 21 -534 21 -446 0 -525 -2 -536 -15z"/>
<path d="M1655 673 c-13 -79 -17 -99 -21 -115 -3 -10 -1 -18 5 -18 6 0 11 10
11 23 0 33 20 55 55 60 l30 4 -33 2 c-31 1 -33 3 -30 34 3 30 6 32 48 38 l45
6 -52 1 -52 2 -6 -37z"/>
<path d="M1895 673 c-4 -21 -11 -54 -16 -73 -12 -45 -11 -60 1 -60 6 0 10 10
10 23 1 57 39 60 65 5 l15 -33 -6 41 c-4 30 -1 44 10 54 19 15 21 51 4 68 -7
7 -27 12 -45 12 -29 0 -33 -3 -38 -37z m76 5 c10 -18 8 -24 -11 -40 -42 -34
-70 -15 -51 35 13 33 46 36 62 5z"/>
<path d="M2135 698 c-4 -14 -25 -140 -25 -151 0 -4 24 -6 53 -5 50 1 50 2 10
5 -34 3 -43 8 -43 23 0 38 12 50 49 51 33 2 34 2 6 6 -40 6 -48 15 -36 46 8
20 18 27 48 30 35 3 34 4 -10 5 -31 1 -49 -2 -52 -10z"/>
<path d="M2389 703 c21 -4 23 -8 16 -51 -11 -78 -17 -93 -39 -102 -16 -7 -9
-9 29 -9 39 0 45 2 28 9 -19 8 -21 13 -13 42 4 18 11 50 14 70 5 27 12 38 29
41 12 2 -3 4 -33 4 -30 0 -44 -2 -31 -4z"/>
<path d="M2615 690 c-23 -25 -33 -114 -15 -135 7 -8 28 -15 46 -15 28 0 36 5
44 26 16 42 13 54 -17 53 -17 -1 -21 -3 -10 -6 10 -3 17 -14 17 -29 0 -17 -7
-25 -27 -30 -35 -9 -56 19 -49 65 11 73 58 104 89 59 12 -17 16 -19 16 -7 2
40 -63 53 -94 19z"/>
<path d="M2836 641 c-19 -81 -20 -101 -6 -101 6 0 10 12 10 28 0 40 13 54 46
50 27 -3 29 -6 26 -40 -5 -69 15 -39 27 37 14 94 13 112 -3 60 -12 -36 -16
-40 -47 -40 -33 0 -34 1 -31 38 4 57 -5 44 -22 -32z"/>
<path d="M3095 703 c33 -8 34 -15 20 -83 -17 -79 -17 -80 -6 -80 5 0 15 26 21
58 6 31 13 67 15 79 4 14 14 23 33 26 15 2 -2 4 -38 4 -36 1 -56 -1 -45 -4z"/>
</g>
</svg>
