<?xml version="1.0" standalone="no"?>
<!DOCTYPE svg PUBLIC "-//W3C//DTD SVG 20010904//EN"
 "http://www.w3.org/TR/2001/REC-SVG-20010904/DTD/svg10.dtd">
<svg version="1.0" xmlns="http://www.w3.org/2000/svg"
 width="5655.000000pt" height="1630.000000pt" viewBox="0 0 5655.000000 1630.000000"
 preserveAspectRatio="xMidYMid meet">

<g transform="translate(0.000000,1630.000000) scale(0.100000,-0.100000)"
fill="#000000" stroke="none">
<path d="M19562 16280 c-225 -61 -389 -237 -428 -460 -12 -74 -14 -751 -12
-5160 3 -4920 4 -5077 22 -5130 36 -107 77 -173 155 -251 312 -311 813 -179
958 251 17 53 18 210 23 4416 l5 4362 1840 -1869 c1012 -1028 1950 -1981 2085
-2117 213 -217 254 -253 315 -285 107 -54 181 -70 300 -64 117 6 196 30 283
87 42 26 656 644 2053 2063 l1994 2026 5 -4287 5 -4287 27 -74 c104 -284 401
-448 683 -376 202 52 367 215 420 415 13 48 15 721 15 5087 l0 5032 -25 80
c-62 196 -228 343 -435 387 -125 27 -246 10 -377 -52 -77 -37 -118 -78 -2608
-2609 -1131 -1149 -2060 -2091 -2064 -2093 -4 -1 -1070 1076 -2368 2395 -1299
1319 -2374 2408 -2390 2419 -133 98 -328 136 -481 94z"/>
<path d="M32820 16284 c-198 -42 -361 -190 -427 -387 l-28 -82 -3 -4650 c-2
-3182 0 -4691 8 -4780 18 -224 80 -429 182 -598 207 -345 522 -569 918 -654
81 -17 272 -18 4490 -18 4218 0 4409 1 4490 18 397 85 711 308 918 654 102
169 164 374 182 598 8 89 10 1475 7 4415 -3 3991 -4 4291 -20 4367 -82 395
-292 709 -615 918 -132 85 -282 146 -464 188 l-93 22 -4740 2 c-4040 1 -4750
-1 -4805 -13z m9470 -1164 c24 -14 58 -45 75 -68 l30 -44 3 -4286 c2 -3886 1
-4291 -13 -4329 -20 -51 -81 -108 -132 -122 -53 -15 -8532 -15 -8586 0 -49 13
-105 63 -128 114 -18 38 -19 204 -19 4403 l0 4362 4363 -2 4362 -3 45 -25z"/>
<path d="M46660 16289 c-98 -11 -266 -54 -358 -90 -504 -200 -856 -644 -932
-1174 -8 -58 -10 -568 -8 -1860 4 -1983 -2 -1804 73 -2032 73 -220 177 -385
355 -564 216 -217 424 -333 739 -412 l86 -21 4265 -6 4265 -5 47 -22 c70 -32
141 -103 172 -172 l26 -59 -2 -1688 -3 -1689 -24 -49 c-33 -66 -91 -122 -160
-155 l-56 -26 -4665 -5 -4665 -5 -71 -26 c-182 -66 -321 -217 -369 -399 -8
-30 -15 -95 -15 -145 0 -166 51 -287 169 -406 83 -82 160 -127 267 -154 54
-13 576 -15 4770 -12 l4709 2 92 22 c203 49 358 114 517 220 120 79 283 234
372 353 127 168 231 416 271 640 17 99 18 200 18 1845 0 1954 5 1823 -75 2065
-76 232 -184 406 -364 585 -216 215 -437 335 -751 409 l-90 21 -4260 5 -4260
5 -53 28 c-65 34 -122 92 -153 155 l-24 47 0 1700 0 1700 23 43 c53 99 137
162 242 182 35 7 1627 10 4662 10 4176 0 4616 1 4672 16 247 64 426 291 429
544 2 164 -52 299 -166 414 -83 83 -161 128 -273 156 -76 20 -127 20 -4723 19
-2555 -1 -4680 -5 -4721 -10z"/>
<path d="M8276 15599 c-65 -15 -158 -65 -215 -116 -137 -120 -203 -311 -167
-483 41 -195 175 -344 361 -403 l70 -22 4015 0 c3869 0 4017 1 4075 18 91 29
154 64 217 125 104 99 154 204 164 342 12 149 -40 284 -151 396 -73 74 -132
111 -224 138 -50 15 -405 16 -4080 15 -2384 -1 -4042 -5 -4065 -10z"/>
<path d="M4310 11197 c-174 -59 -293 -183 -344 -356 -18 -62 -21 -193 -5 -261
38 -167 176 -314 348 -373 l66 -22 5955 -3 c4048 -2 5977 1 6025 8 138 20 279
112 360 233 192 290 35 692 -306 782 -47 13 -883 15 -6044 15 l-5990 -1 -65
-22z"/>
<path d="M385 6811 c-91 -26 -158 -67 -228 -140 -103 -106 -147 -216 -147
-364 0 -243 173 -451 417 -502 64 -13 995 -15 8010 -13 l7938 3 72 26 c297
109 433 433 299 714 -62 131 -172 227 -311 271 l-76 24 -7957 -1 c-7501 0
-7960 -1 -8017 -18z"/>
<path d="M40908 2739 c-378 -40 -677 -357 -778 -828 -35 -163 -43 -278 -37
-594 4 -253 9 -318 26 -401 57 -275 168 -501 321 -654 81 -81 151 -130 253
-177 110 -51 178 -66 327 -72 322 -12 587 79 786 272 l82 80 -5 473 -6 472
-418 0 -419 0 0 -95 0 -95 315 0 315 0 0 -345 0 -344 -48 -48 c-95 -95 -249
-156 -443 -175 -259 -26 -433 33 -591 200 -113 121 -201 305 -243 510 -48 235
-46 741 5 972 95 436 357 677 711 657 166 -10 288 -64 401 -178 53 -54 78 -90
117 -171 28 -57 58 -133 67 -170 l16 -68 109 0 c124 0 117 -7 94 97 -83 390
-361 642 -755 683 -56 5 -107 9 -114 9 -6 -1 -45 -5 -88 -10z"/>
<path d="M25292 1378 l3 -1333 108 -3 107 -3 0 626 0 625 590 0 590 0 0 95 0
95 -590 0 -590 0 0 515 0 515 680 0 680 0 0 100 0 100 -790 0 -790 0 2 -1332z"/>
<path d="M29022 1378 l3 -1333 108 -3 107 -3 0 561 0 560 328 0 327 0 292
-558 292 -557 116 -3 c103 -2 115 -1 115 14 0 10 -135 271 -300 581 -165 310
-300 565 -300 568 0 3 33 21 73 41 214 107 354 266 418 474 30 96 33 295 6
405 -62 248 -246 440 -506 527 -149 51 -235 58 -679 58 l-402 0 2 -1332z m948
1113 c217 -65 363 -206 415 -401 20 -73 19 -249 0 -325 -50 -190 -210 -344
-410 -395 -70 -18 -111 -20 -407 -20 l-328 0 0 586 0 586 328 -5 c302 -4 333
-6 402 -26z"/>
<path d="M32760 1375 l0 -1335 785 0 785 0 0 100 0 100 -675 0 -675 0 0 540 0
540 585 0 585 0 0 95 0 95 -585 0 -585 0 0 500 0 500 673 2 672 3 0 95 0 95
-782 3 -783 2 0 -1335z"/>
<path d="M36490 2610 l0 -100 320 0 320 0 0 -1135 0 -1135 -320 0 -320 0 0
-100 0 -100 770 0 770 0 0 100 0 100 -335 0 -335 0 0 1135 0 1135 335 0 335 0
0 100 0 100 -770 0 -770 0 0 -100z"/>
<path d="M43910 1375 l0 -1335 105 0 105 0 0 640 0 640 625 0 625 0 0 -640 0
-641 103 3 102 3 0 1330 0 1330 -102 3 -103 3 0 -601 0 -600 -625 0 -625 0 0
600 0 600 -105 0 -105 0 0 -1335z"/>
<path d="M47534 2697 c-3 -8 -4 -52 -2 -98 l3 -84 422 -3 423 -2 2 -1233 3
-1232 105 0 105 0 3 1232 2 1233 423 2 422 3 0 95 0 95 -953 3 c-788 2 -953 0
-958 -11z"/>
</g>
</svg>
